<svg width="31" height="31" viewBox="0 0 31 31" fill="none" xmlns="http://www.w3.org/2000/svg">
<path d="M15.4999 2.58398C12.9452 2.58398 10.4479 3.34153 8.32381 4.76084C6.19967 6.18014 4.54411 8.19744 3.56648 10.5577C2.58885 12.9179 2.33306 15.515 2.83145 18.0206C3.32984 20.5262 4.56003 22.8277 6.36646 24.6341C8.17289 26.4405 10.4744 27.6707 12.98 28.1691C15.4856 28.6675 18.0827 28.4117 20.4429 27.4341C22.8031 26.4565 24.8204 24.8009 26.2397 22.6768C27.659 20.5526 28.4166 18.0553 28.4166 15.5007C28.4166 13.8044 28.0825 12.1248 27.4334 10.5577C26.7842 8.99053 25.8328 7.56661 24.6334 6.36719C23.434 5.16777 22.01 4.21633 20.4429 3.56721C18.8758 2.91808 17.1962 2.58398 15.4999 2.58398ZM21.0541 12.4136L15.1512 20.1636C15.0308 20.3199 14.8763 20.4466 14.6994 20.5339C14.5225 20.6212 14.328 20.6668 14.1308 20.6673C13.9346 20.6684 13.7407 20.6247 13.5639 20.5397C13.3871 20.4546 13.232 20.3304 13.1103 20.1765L9.95867 16.1594C9.85435 16.0254 9.77745 15.8722 9.73235 15.7084C9.68726 15.5447 9.67485 15.3737 9.69584 15.2052C9.71683 15.0367 9.7708 14.8739 9.85469 14.7263C9.93857 14.5786 10.0507 14.4489 10.1847 14.3446C10.4553 14.1339 10.7986 14.0394 11.1389 14.0818C11.3074 14.1028 11.4702 14.1567 11.6178 14.2406C11.7655 14.3245 11.8952 14.4366 11.9995 14.5707L14.1049 17.2573L18.9874 10.799C19.0909 10.6633 19.2201 10.5493 19.3676 10.4635C19.5151 10.3777 19.6781 10.3219 19.8472 10.2991C20.0163 10.2763 20.1883 10.287 20.3533 10.3307C20.5182 10.3744 20.673 10.4501 20.8087 10.5536C20.9444 10.657 21.0584 10.7862 21.1441 10.9337C21.2299 11.0813 21.2858 11.2442 21.3086 11.4134C21.3314 11.5825 21.3206 11.7544 21.277 11.9194C21.2333 12.0844 21.1576 12.2391 21.0541 12.3748V12.4136Z" fill="#6FD88C"/>
</svg>
