<svg width="162" height="22" viewBox="0 0 162 22" fill="none" xmlns="http://www.w3.org/2000/svg">
<path d="M28.4447 5.73111C28.4133 8.22855 30.6496 9.62214 32.3342 10.4508C34.065 11.3009 34.6463 11.8461 34.6395 12.6065C34.6266 13.77 33.2589 14.2835 31.9791 14.3034C29.7462 14.3384 28.4479 13.6949 27.4158 13.2083L26.6114 17.0076C27.647 17.4892 29.5644 17.9093 31.5528 17.9277C36.2203 17.9277 39.2739 15.602 39.2904 11.9962C39.3087 7.41986 33.0196 7.16655 33.0625 5.12106C33.0773 4.50082 33.6637 3.83894 34.9484 3.67065C35.5844 3.58564 37.3398 3.52058 39.3302 4.44573L40.1113 0.769833C39.041 0.376434 37.6653 -0.000265121 35.9526 -0.000265121C31.5595 -0.000265121 28.4696 2.35708 28.4447 5.73111ZM47.6175 0.316362C46.7653 0.316362 46.047 0.818192 45.7265 1.58829L39.0592 17.6577H43.7233L44.6514 15.0686H50.3508L50.8892 17.6577H55L51.4128 0.316362H47.6175ZM48.27 5.00092L49.616 11.5128H45.9297L48.27 5.00092ZM22.7898 0.316578L19.1134 17.6575H23.5578L27.2325 0.316145H22.7898V0.316578ZM16.2149 0.316145L11.5889 12.1196L9.7176 2.08362C9.49803 0.963278 8.63092 0.316362 7.66799 0.316362H0.105918L0 0.819927C1.55246 1.15998 3.31633 1.70843 4.38496 2.29528C5.03895 2.65376 5.22543 2.96713 5.44027 3.81899L8.98455 17.6577H13.6812L20.882 0.316362H16.2149" fill="url(#paint0_linear_15_8377)"/>
<g clip-path="url(#clip0_15_8377)">
<path d="M86.1451 21.8907V20.4346C86.1451 19.8763 85.8053 19.5124 85.2228 19.5124C84.9316 19.5124 84.6161 19.6094 84.3976 19.925C84.2278 19.658 83.9852 19.5124 83.6211 19.5124C83.3783 19.5124 83.1358 19.5851 82.9415 19.8521V19.5609H82.4319V21.8907H82.9415V20.6044C82.9415 20.1919 83.16 19.9977 83.4998 19.9977C83.8394 19.9977 84.0095 20.2161 84.0095 20.6044V21.8907H84.5191V20.6044C84.5191 20.1919 84.7617 19.9977 85.0772 19.9977C85.417 19.9977 85.5868 20.2161 85.5868 20.6044V21.8907H86.1451ZM93.6927 19.5609H92.8676V18.8571H92.358V19.5609H91.8969V20.0219H92.3579V21.0898C92.3579 21.6238 92.5763 21.9392 93.1588 21.9392C93.3773 21.9392 93.6198 21.8665 93.7899 21.7694L93.6441 21.3325C93.4985 21.4296 93.3287 21.4539 93.2074 21.4539C92.9647 21.4539 92.8676 21.3083 92.8676 21.0655V20.0219H93.6927V19.5609ZM98.0126 19.5123C97.7214 19.5123 97.5273 19.658 97.4059 19.8521V19.5609H96.8963V21.8907H97.4059V20.5802C97.4059 20.1919 97.5757 19.9735 97.8913 19.9735C97.9883 19.9735 98.1097 19.9978 98.2068 20.022L98.3524 19.5367C98.2553 19.5124 98.1097 19.5124 98.0126 19.5124V19.5123ZM91.4843 19.755C91.2415 19.5851 90.9018 19.5124 90.5377 19.5124C89.9553 19.5124 89.5671 19.8036 89.5671 20.2647C89.5671 20.6531 89.8583 20.8714 90.3679 20.9442L90.6106 20.9686C90.8776 21.017 91.0232 21.0898 91.0232 21.2112C91.0232 21.381 90.829 21.5024 90.4892 21.5024C90.1495 21.5024 89.8825 21.381 89.7126 21.2598L89.4699 21.648C89.7369 21.8422 90.1009 21.9392 90.4649 21.9392C91.1444 21.9392 91.5328 21.6238 91.5328 21.1869C91.5328 20.7743 91.2173 20.5559 90.7319 20.4831L90.4892 20.4588C90.2707 20.4345 90.1009 20.3861 90.1009 20.2405C90.1009 20.0706 90.2707 19.9735 90.5377 19.9735C90.829 19.9735 91.1202 20.0948 91.2658 20.1676L91.4843 19.755ZM105.026 19.5124C104.735 19.5124 104.541 19.658 104.42 19.8521V19.5609H103.91V21.8907H104.42V20.5802C104.42 20.1919 104.59 19.9735 104.905 19.9735C105.002 19.9735 105.124 19.9978 105.221 20.022L105.366 19.5367C105.269 19.5124 105.124 19.5124 105.026 19.5124ZM98.5223 20.7258C98.5223 21.4296 99.0076 21.9392 99.76 21.9392C100.1 21.9392 100.342 21.8665 100.585 21.6723L100.342 21.2598C100.148 21.4054 99.9542 21.4781 99.7357 21.4781C99.3231 21.4781 99.0319 21.1869 99.0319 20.7258C99.0319 20.289 99.3231 19.9977 99.7357 19.9735C99.9542 19.9735 100.148 20.0462 100.342 20.1919L100.585 19.7794C100.342 19.5851 100.1 19.5124 99.76 19.5124C99.0076 19.5124 98.5223 20.022 98.5223 20.7258ZM103.231 20.7258V19.5609H102.721V19.8521C102.551 19.6338 102.308 19.5124 101.993 19.5124C101.338 19.5124 100.828 20.022 100.828 20.7258C100.828 21.4296 101.338 21.9392 101.993 21.9392C102.332 21.9392 102.575 21.8179 102.721 21.5995V21.8907H103.231V20.7258ZM101.362 20.7258C101.362 20.3132 101.629 19.9735 102.066 19.9735C102.478 19.9735 102.769 20.289 102.769 20.7258C102.769 21.1384 102.478 21.4781 102.066 21.4781C101.629 21.4538 101.362 21.1384 101.362 20.7258ZM95.2703 19.5124C94.5907 19.5124 94.1053 19.9977 94.1053 20.7258C94.1053 21.4539 94.5906 21.9392 95.2945 21.9392C95.6342 21.9392 95.974 21.8422 96.241 21.6238L95.9983 21.2598C95.8041 21.4054 95.5615 21.5024 95.3188 21.5024C95.0033 21.5024 94.6878 21.3568 94.6149 20.9441H96.3381V20.7501C96.3624 19.9977 95.9255 19.5124 95.2702 19.5124H95.2703ZM95.2703 19.9492C95.5857 19.9492 95.8042 20.1434 95.8527 20.5075H94.6392C94.6878 20.1919 94.9062 19.9492 95.2703 19.9492ZM107.914 20.7258V18.6387H107.405V19.8521C107.235 19.6338 106.992 19.5124 106.677 19.5124C106.021 19.5124 105.512 20.022 105.512 20.7258C105.512 21.4296 106.021 21.9392 106.677 21.9392C107.017 21.9392 107.259 21.8179 107.405 21.5995V21.8907H107.914V20.7258ZM106.046 20.7258C106.046 20.3132 106.313 19.9735 106.75 19.9735C107.162 19.9735 107.453 20.289 107.453 20.7258C107.453 21.1384 107.162 21.4781 106.75 21.4781C106.313 21.4538 106.046 21.1384 106.046 20.7258ZM89.0088 20.7258V19.5609H88.4991V19.8521C88.3292 19.6338 88.0865 19.5124 87.771 19.5124C87.1158 19.5124 86.6061 20.022 86.6061 20.7258C86.6061 21.4296 87.1158 21.9392 87.771 21.9392C88.1109 21.9392 88.3535 21.8179 88.4991 21.5995V21.8907H89.0088V20.7258ZM87.1158 20.7258C87.1158 20.3132 87.3828 19.9735 87.8196 19.9735C88.2321 19.9735 88.5235 20.289 88.5235 20.7258C88.5235 21.1384 88.2321 21.4781 87.8196 21.4781C87.3828 21.4538 87.1158 21.1384 87.1158 20.7258Z" fill="black"/>
<path d="M91.3142 1.86914H98.9589V15.6054H91.3142V1.86914Z" fill="#FF5F00"/>
<path d="M91.7998 8.73687C91.7998 5.94597 93.1103 3.47047 95.1246 1.86867C93.6443 0.703779 91.7756 0 89.737 0C84.9073 0 81 3.90727 81 8.73687C81 13.5664 84.9073 17.4737 89.7369 17.4737C91.7755 17.4737 93.6441 16.77 95.1246 15.605C93.1103 14.0275 91.7998 11.5278 91.7998 8.73687Z" fill="#EB001B"/>
<path d="M109.273 8.73687C109.273 13.5664 105.366 17.4737 100.537 17.4737C98.498 17.4737 96.6293 16.77 95.1489 15.605C97.1875 14.0033 98.4738 11.5278 98.4738 8.73687C98.4738 5.94597 97.1632 3.47047 95.1489 1.86867C96.6292 0.703779 98.498 0 100.537 0C105.366 0 109.274 3.93159 109.274 8.73687H109.273Z" fill="#F79E1B"/>
</g>
<g clip-path="url(#clip1_15_8377)">
<path d="M150.887 15.6221H143.273V1.86914H150.887L150.887 15.6221Z" fill="#6C6BBD"/>
<path d="M143.756 8.74649C143.756 5.95669 145.056 3.47158 147.08 1.87011C145.6 0.699025 143.732 0 141.702 0C136.896 0 133 3.91589 133 8.74649C133 13.5772 136.896 17.4931 141.702 17.4931C143.732 17.4931 145.6 16.7941 147.08 15.623C145.056 14.0215 143.756 11.5364 143.756 8.7466" fill="#D32011"/>
<path d="M161.16 8.74649C161.16 13.5772 157.264 17.4931 152.458 17.4931C150.428 17.4931 148.56 16.7941 147.08 15.623C149.104 14.0215 150.404 11.5364 150.404 8.7466C150.404 5.95669 149.104 3.47158 147.08 1.87011C148.56 0.699025 150.428 0 152.458 0C157.264 0 161.16 3.91589 161.16 8.74649Z" fill="#0099DF"/>
<path d="M153.464 19.5095C153.565 19.5095 153.71 19.5289 153.822 19.5728L153.667 20.0488C153.56 20.0048 153.454 19.9905 153.352 19.9905C153.024 19.9905 152.859 20.204 152.859 20.5877V21.89H152.356V19.5678H152.854V19.8497C152.985 19.6457 153.174 19.5095 153.464 19.5095ZM151.606 20.0294H150.784V21.0786C150.784 21.3117 150.866 21.4674 151.118 21.4674C151.248 21.4674 151.412 21.4235 151.562 21.3361L151.707 21.7682C151.548 21.8799 151.296 21.9484 151.079 21.9484C150.484 21.9484 150.277 21.6275 150.277 21.0882V20.0294H149.807V19.5678H150.277V18.8633H150.784V19.5678H151.606V20.0294ZM145.171 20.5248C145.225 20.1895 145.428 19.961 145.786 19.961C146.109 19.961 146.317 20.165 146.37 20.5248H145.171ZM146.893 20.7289C146.888 20.0048 146.443 19.5095 145.795 19.5095C145.118 19.5095 144.645 20.0048 144.645 20.7289C144.645 21.4668 145.138 21.9478 145.829 21.9478C146.177 21.9478 146.496 21.8605 146.776 21.6226L146.53 21.2482C146.337 21.404 146.09 21.4912 145.858 21.4912C145.534 21.4912 145.239 21.3405 145.167 20.923H146.883C146.888 20.8595 146.893 20.7967 146.893 20.7289H146.893ZM149.101 20.1606C148.961 20.0727 148.676 19.961 148.382 19.961C148.106 19.961 147.942 20.0632 147.942 20.2335C147.942 20.3886 148.115 20.4325 148.333 20.4614L148.57 20.4954C149.073 20.5688 149.377 20.7823 149.377 21.1904C149.377 21.6326 148.99 21.9484 148.323 21.9484C147.946 21.9484 147.598 21.8511 147.322 21.647L147.559 21.2533C147.729 21.3845 147.98 21.4963 148.328 21.4963C148.671 21.4963 148.855 21.3946 148.855 21.2144C148.855 21.0836 148.725 21.0103 148.449 20.9719L148.212 20.938C147.695 20.8646 147.414 20.6316 147.414 20.2529C147.414 19.7914 147.792 19.5095 148.377 19.5095C148.744 19.5095 149.078 19.5924 149.319 19.7525L149.101 20.1606H149.101ZM155.301 19.9893C155.198 19.9893 155.102 20.0076 155.013 20.0438C154.927 20.0789 154.848 20.1311 154.783 20.1973C154.717 20.2651 154.665 20.3454 154.63 20.4336C154.593 20.5253 154.575 20.6266 154.575 20.7367C154.575 20.8473 154.593 20.948 154.63 21.0397C154.667 21.1315 154.718 21.2104 154.783 21.2761C154.848 21.3423 154.927 21.3945 155.013 21.4295C155.102 21.4662 155.198 21.484 155.301 21.484C155.404 21.484 155.501 21.4664 155.589 21.4295C155.676 21.3946 155.755 21.3424 155.821 21.2761C155.886 21.2104 155.937 21.1315 155.975 21.0397C156.012 20.948 156.03 20.8474 156.03 20.7367C156.03 20.6266 156.012 20.5253 155.975 20.4336C155.937 20.3418 155.886 20.2629 155.821 20.1973C155.755 20.131 155.676 20.0787 155.589 20.0438C155.498 20.007 155.4 19.9884 155.301 19.9893H155.301ZM155.301 19.5095C155.48 19.5095 155.646 19.5405 155.799 19.6034C155.952 19.6657 156.084 19.7519 156.195 19.8615C156.307 19.9719 156.396 20.1039 156.457 20.2495C156.52 20.3992 156.552 20.5615 156.552 20.7367C156.552 20.9118 156.52 21.0742 156.457 21.2238C156.396 21.3696 156.307 21.5018 156.195 21.6125C156.084 21.722 155.952 21.8077 155.799 21.8705C155.646 21.9328 155.48 21.964 155.301 21.964C155.122 21.964 154.956 21.9328 154.803 21.8705C154.65 21.8077 154.519 21.7221 154.409 21.6125C154.297 21.5015 154.209 21.3694 154.148 21.2238C154.085 21.0742 154.053 20.9118 154.053 20.7367C154.053 20.5615 154.085 20.3992 154.148 20.2496C154.209 20.1042 154.297 19.9723 154.409 19.8615C154.522 19.75 154.656 19.6623 154.803 19.6034C154.956 19.5405 155.122 19.5095 155.301 19.5095ZM142.234 20.7289C142.234 20.3207 142.501 19.9854 142.936 19.9854C143.351 19.9854 143.632 20.3063 143.632 20.7289C143.632 21.1515 143.351 21.4718 142.936 21.4718C142.501 21.4718 142.234 21.137 142.234 20.7289ZM144.105 20.7289V19.5678H143.603V19.8497C143.443 19.6407 143.202 19.5095 142.873 19.5095C142.225 19.5095 141.718 20.0193 141.718 20.7289C141.718 21.4379 142.225 21.9484 142.873 21.9484C143.202 21.9484 143.443 21.8171 143.603 21.6081V21.89H144.105V20.7289ZM141.273 21.89V20.4325C141.273 19.8837 140.925 19.5144 140.364 19.5094C140.069 19.5044 139.764 19.5967 139.552 19.9226C139.393 19.6651 139.141 19.5095 138.788 19.5095C138.542 19.5095 138.3 19.5823 138.111 19.8542V19.5678H137.609V21.89H138.116V20.6027C138.116 20.1995 138.339 19.9854 138.682 19.9854C139.015 19.9854 139.185 20.204 139.185 20.5976V21.89H139.692V20.6027C139.692 20.1995 139.924 19.9854 140.257 19.9854C140.601 19.9854 140.765 20.204 140.765 20.5976V21.89H141.273Z" fill="#110F0D"/>
</g>
<defs>
<linearGradient id="paint0_linear_15_8377" x1="25.2857" y1="18.2874" x2="25.8095" y2="-0.124671" gradientUnits="userSpaceOnUse">
<stop stop-color="#222357"/>
<stop offset="1" stop-color="#254AA5"/>
</linearGradient>
<clipPath id="clip0_15_8377">
<rect width="28.3015" height="22" fill="white" transform="translate(81)"/>
</clipPath>
<clipPath id="clip1_15_8377">
<rect width="28.16" height="22" fill="white" transform="translate(133)"/>
</clipPath>
</defs>
</svg>
