<svg width="99" height="24" viewBox="0 0 99 24" fill="none" xmlns="http://www.w3.org/2000/svg">
<g filter="url(#filter0_d_15_7030)">
<path d="M18.9603 5.38572C18.9131 5.24687 18.8264 5.12487 18.7107 5.03477C18.595 4.94467 18.4554 4.89042 18.3093 4.87872L14.0335 4.53897L12.1833 0.443226C12.1243 0.31131 12.0285 0.199267 11.9073 0.120619C11.7861 0.0419709 11.6447 7.94092e-05 11.5003 1.12784e-07C11.3558 -7.91837e-05 11.2144 0.0416571 11.0931 0.120172C10.9718 0.198687 10.8758 0.310625 10.8168 0.442476L8.96652 4.53897L4.69077 4.87872C4.54711 4.89011 4.40977 4.94263 4.29519 5.03002C4.1806 5.11741 4.09361 5.23596 4.04464 5.3715C3.99566 5.50703 3.98677 5.6538 4.01903 5.79425C4.05128 5.9347 4.12332 6.06289 4.22652 6.16347L7.38627 9.24372L6.26877 14.0827C6.23484 14.2292 6.24571 14.3825 6.29998 14.5227C6.35426 14.6629 6.44942 14.7836 6.57312 14.8691C6.69682 14.9545 6.84336 15.0008 6.99371 15.002C7.14406 15.0031 7.29128 14.959 7.41627 14.8755L11.5 12.153L15.5838 14.8755C15.7115 14.9603 15.8622 15.004 16.0155 15.0006C16.1688 14.9972 16.3174 14.947 16.4413 14.8567C16.5652 14.7663 16.6585 14.6402 16.7086 14.4953C16.7587 14.3503 16.7632 14.1935 16.7215 14.046L15.3498 9.24597L18.7518 6.18447C18.9745 5.98347 19.0563 5.66997 18.9603 5.38572Z" fill="#FF7BAC"/>
<path d="M37.9603 5.38572C37.9131 5.24687 37.8264 5.12487 37.7107 5.03477C37.595 4.94467 37.4554 4.89042 37.3093 4.87872L33.0335 4.53897L31.1833 0.443226C31.1243 0.31131 31.0285 0.199267 30.9073 0.120619C30.7861 0.0419709 30.6447 7.94092e-05 30.5003 1.12784e-07C30.3558 -7.91837e-05 30.2144 0.0416571 30.0931 0.120172C29.9718 0.198687 29.8758 0.310625 29.8168 0.442476L27.9665 4.53897L23.6908 4.87872C23.5471 4.89011 23.4098 4.94263 23.2952 5.03002C23.1806 5.11741 23.0936 5.23596 23.0446 5.3715C22.9957 5.50703 22.9868 5.6538 23.019 5.79425C23.0513 5.9347 23.1233 6.06289 23.2265 6.16347L26.3863 9.24372L25.2688 14.0827C25.2348 14.2292 25.2457 14.3825 25.3 14.5227C25.3543 14.6629 25.4494 14.7836 25.5731 14.8691C25.6968 14.9545 25.8434 15.0008 25.9937 15.002C26.1441 15.0031 26.2913 14.959 26.4163 14.8755L30.5 12.153L34.5838 14.8755C34.7115 14.9603 34.8622 15.004 35.0155 15.0006C35.1688 14.9972 35.3174 14.947 35.4413 14.8567C35.5652 14.7663 35.6585 14.6402 35.7086 14.4953C35.7587 14.3503 35.7632 14.1935 35.7215 14.046L34.3498 9.24597L37.7518 6.18447C37.9745 5.98347 38.0563 5.66997 37.9603 5.38572Z" fill="#FF7BAC"/>
<path d="M56.9603 5.38572C56.9131 5.24687 56.8264 5.12487 56.7107 5.03477C56.595 4.94467 56.4554 4.89042 56.3093 4.87872L52.0335 4.53897L50.1833 0.443226C50.1243 0.31131 50.0285 0.199267 49.9073 0.120619C49.7861 0.0419709 49.6447 7.94092e-05 49.5003 1.12784e-07C49.3558 -7.91837e-05 49.2144 0.0416571 49.0931 0.120172C48.9718 0.198687 48.8758 0.310625 48.8168 0.442476L46.9665 4.53897L42.6908 4.87872C42.5471 4.89011 42.4098 4.94263 42.2952 5.03002C42.1806 5.11741 42.0936 5.23596 42.0446 5.3715C41.9957 5.50703 41.9868 5.6538 42.019 5.79425C42.0513 5.9347 42.1233 6.06289 42.2265 6.16347L45.3863 9.24372L44.2688 14.0827C44.2348 14.2292 44.2457 14.3825 44.3 14.5227C44.3543 14.6629 44.4494 14.7836 44.5731 14.8691C44.6968 14.9545 44.8434 15.0008 44.9937 15.002C45.1441 15.0031 45.2913 14.959 45.4163 14.8755L49.5 12.153L53.5838 14.8755C53.7115 14.9603 53.8622 15.004 54.0155 15.0006C54.1688 14.9972 54.3174 14.947 54.4413 14.8567C54.5652 14.7663 54.6585 14.6402 54.7086 14.4953C54.7587 14.3503 54.7632 14.1935 54.7215 14.046L53.3498 9.24597L56.7518 6.18447C56.9745 5.98347 57.0563 5.66997 56.9603 5.38572Z" fill="#FF7BAC"/>
<path d="M75.9603 5.38572C75.9131 5.24687 75.8264 5.12487 75.7107 5.03477C75.595 4.94467 75.4554 4.89042 75.3093 4.87872L71.0335 4.53897L69.1833 0.443226C69.1243 0.31131 69.0285 0.199267 68.9073 0.120619C68.7861 0.0419709 68.6447 7.94092e-05 68.5003 1.12784e-07C68.3558 -7.91837e-05 68.2144 0.0416571 68.0931 0.120172C67.9718 0.198687 67.8758 0.310625 67.8168 0.442476L65.9665 4.53897L61.6908 4.87872C61.5471 4.89011 61.4098 4.94263 61.2952 5.03002C61.1806 5.11741 61.0936 5.23596 61.0446 5.3715C60.9957 5.50703 60.9868 5.6538 61.019 5.79425C61.0513 5.9347 61.1233 6.06289 61.2265 6.16347L64.3863 9.24372L63.2688 14.0827C63.2348 14.2292 63.2457 14.3825 63.3 14.5227C63.3543 14.6629 63.4494 14.7836 63.5731 14.8691C63.6968 14.9545 63.8434 15.0008 63.9937 15.002C64.1441 15.0031 64.2913 14.959 64.4163 14.8755L68.5 12.153L72.5838 14.8755C72.7115 14.9603 72.8622 15.004 73.0155 15.0006C73.1688 14.9972 73.3174 14.947 73.4413 14.8567C73.5652 14.7663 73.6585 14.6402 73.7086 14.4953C73.7587 14.3503 73.7632 14.1935 73.7215 14.046L72.3498 9.24597L75.7518 6.18447C75.9745 5.98347 76.0563 5.66997 75.9603 5.38572Z" fill="#FF7BAC"/>
<path d="M94.9603 5.38572C94.9131 5.24687 94.8264 5.12487 94.7107 5.03477C94.595 4.94467 94.4554 4.89042 94.3093 4.87872L90.0335 4.53897L88.1833 0.443226C88.1243 0.31131 88.0285 0.199267 87.9073 0.120619C87.7861 0.0419709 87.6447 7.94092e-05 87.5003 1.12784e-07C87.3558 -7.91837e-05 87.2144 0.0416571 87.0931 0.120172C86.9718 0.198687 86.8758 0.310625 86.8168 0.442476L84.9665 4.53897L80.6908 4.87872C80.5471 4.89011 80.4098 4.94263 80.2952 5.03002C80.1806 5.11741 80.0936 5.23596 80.0446 5.3715C79.9957 5.50703 79.9868 5.6538 80.019 5.79425C80.0513 5.9347 80.1233 6.06289 80.2265 6.16347L83.3863 9.24372L82.2688 14.0827C82.2348 14.2292 82.2457 14.3825 82.3 14.5227C82.3543 14.6629 82.4494 14.7836 82.5731 14.8691C82.6968 14.9545 82.8434 15.0008 82.9937 15.002C83.1441 15.0031 83.2913 14.959 83.4163 14.8755L87.5 12.153L91.5838 14.8755C91.7115 14.9603 91.8622 15.004 92.0155 15.0006C92.1688 14.9972 92.3174 14.947 92.4413 14.8567C92.5652 14.7663 92.6585 14.6402 92.7086 14.4953C92.7587 14.3503 92.7632 14.1935 92.7215 14.046L91.3498 9.24597L94.7518 6.18447C94.9745 5.98347 95.0563 5.66997 94.9603 5.38572Z" fill="#FF7BAC"/>
</g>
<defs>
<filter id="filter0_d_15_7030" x="0" y="0" width="99" height="23.002" filterUnits="userSpaceOnUse" color-interpolation-filters="sRGB">
<feFlood flood-opacity="0" result="BackgroundImageFix"/>
<feColorMatrix in="SourceAlpha" type="matrix" values="0 0 0 0 0 0 0 0 0 0 0 0 0 0 0 0 0 0 127 0" result="hardAlpha"/>
<feOffset dy="4"/>
<feGaussianBlur stdDeviation="2"/>
<feComposite in2="hardAlpha" operator="out"/>
<feColorMatrix type="matrix" values="0 0 0 0 1 0 0 0 0 0.482353 0 0 0 0 0.67451 0 0 0 0.4 0"/>
<feBlend mode="normal" in2="BackgroundImageFix" result="effect1_dropShadow_15_7030"/>
<feBlend mode="normal" in="SourceGraphic" in2="effect1_dropShadow_15_7030" result="shape"/>
</filter>
</defs>
</svg>
