<svg width="21" height="21" viewBox="0 0 21 21" fill="none" xmlns="http://www.w3.org/2000/svg">
<path d="M10.5 1.75C8.76942 1.75 7.07769 2.26318 5.63876 3.22464C4.19983 4.1861 3.07832 5.55267 2.41606 7.15152C1.75379 8.75037 1.58051 10.5097 1.91813 12.207C2.25575 13.9044 3.08911 15.4635 4.31282 16.6872C5.53653 17.9109 7.09563 18.7443 8.79296 19.0819C10.4903 19.4195 12.2496 19.2462 13.8485 18.5839C15.4473 17.9217 16.8139 16.8002 17.7754 15.3612C18.7368 13.9223 19.25 12.2306 19.25 10.5C19.25 9.35093 19.0237 8.21312 18.5839 7.15152C18.1442 6.08992 17.4997 5.12533 16.6872 4.31282C15.8747 3.5003 14.9101 2.85578 13.8485 2.41605C12.7869 1.97633 11.6491 1.75 10.5 1.75ZM14.2625 8.40875L10.2638 13.6588C10.1822 13.7646 10.0776 13.8505 9.95774 13.9096C9.83791 13.9688 9.70613 13.9997 9.5725 14C9.4396 14.0007 9.30827 13.9711 9.1885 13.9135C9.06873 13.8559 8.96365 13.7718 8.88125 13.6675L6.74625 10.9463C6.67559 10.8555 6.62349 10.7517 6.59294 10.6408C6.56239 10.5298 6.55399 10.414 6.5682 10.2999C6.58242 10.1857 6.61899 10.0755 6.67581 9.97543C6.73263 9.8754 6.8086 9.78754 6.89938 9.71688C7.08271 9.57416 7.31523 9.51011 7.54578 9.53883C7.65994 9.55305 7.77018 9.58961 7.8702 9.64643C7.97023 9.70326 8.05809 9.77922 8.12875 9.87L9.555 11.69L12.8625 7.315C12.9326 7.22307 13.0201 7.14586 13.12 7.08775C13.22 7.02965 13.3304 6.9918 13.4449 6.97636C13.5595 6.96092 13.676 6.9682 13.7877 6.99778C13.8995 7.02736 14.0043 7.07866 14.0963 7.14875C14.1882 7.21884 14.2654 7.30636 14.3235 7.40629C14.3816 7.50623 14.4195 7.61663 14.4349 7.73119C14.4503 7.84576 14.4431 7.96224 14.4135 8.07399C14.3839 8.18574 14.3326 8.29058 14.2625 8.3825V8.40875Z" fill="#FF7BAC"/>
</svg>
