<svg width="480" height="6" viewBox="0 0 480 6" fill="none" xmlns="http://www.w3.org/2000/svg">
<mask id="mask0_73_857" style="mask-type:alpha" maskUnits="userSpaceOnUse" x="0" y="0" width="480" height="6">
<rect width="480" height="6" fill="#C4C4C4"/>
</mask>
<g mask="url(#mask0_73_857)">
<rect width="480" height="6" fill="#FF7BAC" fill-opacity="0.4"/>
<path d="M146.04 286.031H136.04C137.11 284.161 138.04 282.211 139.26 280.441C165.26 242.148 191.303 203.865 217.39 165.591L366.04 -52.9688H376.04C375.24 -49.9688 373.15 -47.7588 371.48 -45.2988C296.353 65.1813 221.207 175.625 146.04 286.031Z" fill="#FF7BAC"/>
<path d="M239.04 286.031H229.04C230.04 284.301 230.85 282.481 231.96 280.851C262.16 236.331 292.38 191.821 322.62 147.321C368.06 80.5679 413.533 13.8046 459.04 -52.9688H469.04C468.46 -50.4488 466.71 -48.5788 465.32 -46.5388C415.213 27.1746 365.083 100.861 314.93 174.521L239.04 286.031Z" fill="#FF7BAC"/>
<path d="M109.04 286.031H99.04C99.44 283.421 101.3 281.611 102.68 279.571C151.1 208.391 199.547 137.211 248.02 66.0312C274.987 26.3579 301.993 -13.3088 329.04 -52.9688H339.04C338.32 -51.6688 337.69 -50.3088 336.85 -49.0788C288.43 22.1212 240 93.3146 191.56 164.501C164.02 205.021 136.513 245.531 109.04 286.031Z" fill="#FF7BAC"/>
<path d="M292.04 -52.9688H302.04C301.18 -51.5588 300.37 -50.0988 299.44 -48.7188C231.607 51.0013 163.77 150.701 95.9301 250.381C87.8801 262.221 80 274.171 72.04 286.071H62.04C62.18 283.361 64.12 281.581 65.5 279.561C125.933 190.701 186.387 101.858 246.86 13.0312C261.86 -8.96875 276.92 -30.9688 292.04 -52.9688Z" fill="#FF7BAC"/>
<path d="M347.04 -52.9688H357.04C357.04 -50.2287 355.04 -48.4887 353.65 -46.4787C289.17 48.3679 224.667 143.185 160.14 237.971C149.19 254.031 138.08 270.031 127.04 286.031H117.04C117.46 285.311 117.85 284.561 118.31 283.881C184.55 186.548 250.787 89.2146 317.02 -8.11874C327.12 -22.9687 337.69 -37.5588 347.04 -52.9688Z" fill="#FF7BAC"/>
<path d="M202.04 286.031H192.04C192.48 283.251 194.47 281.331 195.95 279.161C244.963 207.141 293.97 135.125 342.97 63.1112C369.303 24.3912 395.66 -14.3021 422.04 -52.9688H432.04C431.04 -51.2687 430.1 -49.4987 428.98 -47.8587C373.647 33.5346 318.28 114.918 262.88 196.291C242.56 226.198 222.28 256.111 202.04 286.031Z" fill="#FF7BAC"/>
<path d="M165.04 286.031H155.04C155.24 283.161 157.3 281.271 158.77 279.111C221.83 186.391 284.913 93.6979 348.02 1.03125C360.3 -16.9688 372.7 -34.9688 385.02 -52.9688H395.02C393.69 -50.8688 392.41 -48.7188 391.02 -46.6588C327.32 47.0013 263.613 140.648 199.9 234.281C188.2 251.481 176.66 268.801 165.04 286.031Z" fill="#FF7BAC"/>
<path d="M90.04 286.031H80.04C81.17 284.191 82.2201 282.301 83.4301 280.511C145.163 189.765 206.897 99.0179 268.63 8.27124C282.523 -12.0821 296.327 -32.4954 310.04 -52.9688H320.04C319.88 -50.4588 318.04 -48.7988 316.79 -46.9088C260.123 36.4246 203.423 119.758 146.69 203.091C127.877 230.785 108.993 258.431 90.04 286.031Z" fill="#FF7BAC"/>
<path d="M236.04 -52.9688H246.04C245.23 -51.5287 244.51 -50.0288 243.59 -48.6588C186.11 35.9479 128.623 120.535 71.13 205.101C52.7833 232.101 34.42 259.101 16.04 286.101H6.04004C6.48004 283.511 8.31003 281.681 9.69003 279.641C35.15 242.161 60.6333 204.701 86.14 167.261C136.113 93.8546 186.08 20.4446 236.04 -52.9688Z" fill="#FF7BAC"/>
<path d="M220.04 286.031H210.04C210.55 285.171 211.04 284.281 211.57 283.451C278.237 185.411 344.937 87.3712 411.67 -10.6688C421.22 -24.6688 431.21 -38.4587 440.04 -52.9688H450.04C450.04 -50.2387 448.04 -48.4887 446.64 -46.4787C383.1 46.9879 319.537 140.425 255.95 233.831C244.06 251.301 232.01 268.661 220.04 286.031Z" fill="#FF7BAC"/>
<path d="M403.04 -52.9688H413.04C412.8 -50.2987 410.85 -48.5388 409.47 -46.5188C354.023 35.0679 298.547 116.621 243.04 198.141C223.04 227.475 203.04 256.785 183.04 286.071H173.04C174.16 284.221 175.21 282.331 176.42 280.551C236.647 192.005 296.883 103.461 357.13 14.9213C372.49 -7.67207 387.793 -30.3021 403.04 -52.9688Z" fill="#FF7BAC"/>
<path d="M478.04 -52.9688H488.04C487.04 -51.4188 486.18 -49.8187 485.16 -48.3087C419.573 48.1113 353.987 144.508 288.4 240.881C278.19 255.881 268.15 271.001 258.04 286.071H248.04C248.04 283.511 249.9 281.851 251.18 279.981C315.1 185.981 379.043 92.0146 443.01 -1.91876C454.62 -18.9688 466.36 -35.9688 478.04 -52.9688Z" fill="#FF7BAC"/>
<path d="M255.04 -52.9688H265.04C264.7 -52.3988 264.38 -51.8087 264.04 -51.2587C197.813 46.1479 131.583 143.541 65.35 240.921C55.04 256.031 44.47 271.031 34.04 286.031H24.04C41.8067 259.845 59.5834 233.661 77.3701 207.481C129.07 131.481 180.793 55.4812 232.54 -20.5188C239.94 -31.3988 246.89 -42.5887 255.04 -52.9688Z" fill="#FF7BAC"/>
<path d="M273.04 -52.9688H283.04C282.36 -50.1188 280.36 -47.9688 278.78 -45.7088C203.553 64.9046 128.307 175.485 53.04 286.031H43.04C43.83 284.571 44.5 283.031 45.42 281.681C78.2934 233.341 111.18 185.008 144.08 136.681C187.073 73.5012 230.06 10.2846 273.04 -52.9688Z" fill="#FF7BAC"/>
<path d="M-2.95996 286.031C-6.27996 285.541 -9.79996 287.121 -12.96 285.031C-2.95996 270.521 7.19005 256.081 17.11 241.501C71.11 162.115 125.11 82.7079 179.11 3.28125C191.817 -15.4254 204.483 -34.1754 217.11 -52.9688H227.11C227.06 -50.7987 225.54 -49.3487 224.44 -47.7287C165.593 38.8379 106.75 125.375 47.91 211.881C31.04 236.671 14 261.341 -2.95996 286.031Z" fill="#FF7BAC"/>
<path d="M496.04 -51.9688V-36.9688C441.373 43.2846 386.683 123.541 331.97 203.801C313.303 231.188 294.66 258.598 276.04 286.031H266.04C266.87 284.591 267.63 283.111 268.55 281.741C285.99 255.961 303.447 230.195 320.92 204.441C368.78 134.168 416.673 63.9079 464.6 -6.33875C475 -21.5887 485.56 -36.7388 496.04 -51.9688Z" fill="#FF7BAC"/>
<path d="M199.04 -52.9688H209.04C208.18 -51.5488 207.39 -50.0887 206.46 -48.7188C141.62 46.6813 76.7634 142.071 11.89 237.451C3.75005 249.401 -4.66996 261.171 -12.96 273.031V258.031C-9.42996 253.031 -5.84995 247.971 -2.38995 242.881C48.6034 167.881 99.5834 92.8813 150.55 17.8813C166.65 -5.75874 182.813 -29.3754 199.04 -52.9688Z" fill="#FF7BAC"/>
<path d="M496.04 -23.9688V-8.96875C494.43 -6.85875 492.72 -4.81875 491.23 -2.62875C445.65 64.2312 400.093 131.088 354.56 197.941C334.62 227.251 314.87 256.691 295.04 286.071H285.04C285.18 284.071 286.52 282.761 287.53 281.261C299.18 264.001 310.78 246.721 322.53 229.511C379.07 146.478 435.627 63.4779 492.2 -19.4888C493.27 -21.1288 494.01 -23.1187 496.04 -23.9688Z" fill="#FF7BAC"/>
<path d="M-12.96 246.031V231.031L88.1801 82.2513L180.04 -52.9688H190.04C189.66 -50.7387 188.12 -49.1287 186.92 -47.3587C129.2 37.5813 71.4634 122.515 13.71 207.441C4.92002 220.411 -4.05996 233.211 -12.96 246.031Z" fill="#FF7BAC"/>
<path d="M313.04 286.031H303.04C308.75 277.431 314.37 268.781 320.18 260.251C375.827 178.491 431.493 96.7543 487.18 15.041C489.97 10.941 492.27 6.45102 496 3.04102V18.041C495.1 19.231 494.14 20.381 493.3 21.611C445.033 92.451 396.767 163.288 348.5 234.121C336.727 251.474 324.907 268.778 313.04 286.031Z" fill="#FF7BAC"/>
<path d="M-12.96 218.03V204.03C-12.06 202.63 -11.19 201.21 -10.26 199.84C38.2734 128.447 86.8167 57.0437 135.37 -14.3697C144.17 -27.2897 152.52 -40.5097 162.04 -52.9297H172.04C171.79 -52.4997 171.57 -52.0497 171.29 -51.6397C110.99 37.0803 50.68 125.79 -9.63995 214.49C-10.53 215.83 -11.2 217.49 -12.96 218.03Z" fill="#FF7BAC"/>
<path d="M143.04 -52.9688H153.04C152.24 -51.5287 151.55 -49.9687 150.62 -48.6487C99.1867 27.1379 47.7 102.901 -3.83997 178.641C-6.71997 182.881 -9.13996 187.501 -12.96 191.071V176.031C-11.59 174.151 -10.16 172.311 -8.84998 170.391C41.79 95.9712 92.42 21.5179 143.04 -52.9688Z" fill="#FF7BAC"/>
<path d="M-12.96 164.031V149.031C20.06 100.451 53.0767 51.8713 86.09 3.29126C98.8 -15.4287 111.39 -34.2188 124.09 -52.9688H134.09C133.91 -50.2887 131.98 -48.5087 130.6 -46.4787C90.6267 12.3879 50.6367 71.2246 10.63 130.031C2.85003 141.421 -4.44996 153.161 -12.96 164.031Z" fill="#FF7BAC"/>
<path d="M-12.96 136.031V122.031C11.04 86.6512 35.0634 51.2746 59.11 15.9012C74.73 -7.07209 90.3734 -30.0287 106.04 -52.9688H116.04C115.28 -51.6888 114.59 -50.3588 113.75 -49.1288C72.6367 11.4112 31.5067 71.9446 -9.63995 132.471C-10.53 133.841 -11.18 135.511 -12.96 136.031Z" fill="#FF7BAC"/>
<path d="M87.04 -52.9688H97.04C96.61 -50.5787 94.95 -48.8488 93.66 -46.9688C60.5267 1.87125 27.3667 50.6912 -5.81998 99.4912C-8.04998 102.761 -9.81996 106.411 -12.96 109.011V94.0312C-12.4907 93.5578 -12.0499 93.0569 -11.64 92.5312L87.04 -52.9688Z" fill="#FF7BAC"/>
<path d="M-12.96 82.0312V67.0312C-1.79996 50.6513 9.36336 34.2779 20.53 17.9113C36.6767 -5.71541 52.8467 -29.3421 69.04 -52.9688H79.04C55.04 -17.5288 31.02 17.9046 6.98004 53.3312C0.470041 63.0312 -5.64996 72.9613 -12.96 82.0312Z" fill="#FF7BAC"/>
<path d="M-12.96 54.0312V40.0312C-12.34 39.0312 -11.74 38.0312 -11.08 37.0312C9.29338 7.03125 29.6667 -22.9688 50.04 -52.9688H60.04C59.3606 -51.4729 58.596 -50.0171 57.75 -48.6087C35.3234 -15.5154 12.8634 17.5246 -9.62997 50.5113C-10.53 51.8413 -11.17 53.5212 -12.96 54.0312Z" fill="#FF7BAC"/>
<path d="M42.04 -52.9688C24.5 -27.1354 6.95336 -1.30543 -10.6 24.5212C-11.3233 25.4153 -12.1121 26.2543 -12.96 27.0312V12.0312C-7.95329 4.81125 -2.95329 -2.4021 2.04004 -9.60876C12.1 -24.0088 21.4 -38.9487 32.04 -52.9688H42.04Z" fill="#FF7BAC"/>
<path d="M23.04 -52.9688C18.25 -44.2388 12.23 -36.3087 6.61005 -28.1187C0.150046 -18.6987 -5.76996 -8.88875 -12.96 0.03125V-14.9688C-4.29329 -27.6354 4.37337 -40.3021 13.04 -52.9688H23.04Z" fill="#FF7BAC"/>
</g>
</svg>
